{"title":"Two And A Half Men S01-S08 480p nSD WEB-DL_rvarun7777","uid":9436693,"size":44863744191,"categoryP":"video","categoryS":"tv_shows","magnet":"?xt=urn:btih:65087cac952eaaa5e7f701091de0a38f8028dfbb&amp;dn=Two+And+A+Half+Men+S01-S08+480p+nSD+WEB-DL_rvarun7777&amp;tr=udp%3A%2F%2Ftracker.openbittorrent.com%3A80&amp;tr=udp%3A%2F%2Fopen.demonii.com%3A1337&amp;tr=udp%3A%2F%2Ftracker.coppersurfer.tk%3A6969&amp;tr=udp%3A%2F%2Fexodus.desync.com%3A6969","seeders":1,"leechers":6,"uploader":"rvarun7777","files":214,"time":1388920308,"description":"Two And A Half Men S01-S08 480p nSD WEB-DL_rvarun7777+Folder Customization\n\nNo offense i am not interested in uploading Season 9,10 and the on going shit 11...\nTwo and a Half men without Charlie Suxxxxxxxxxx!!!!!!!\n\nEncoded to the lowest size on net!!!\n\nFor more encodes,Follow us on\n\nGeneral\nTwo And A Half Men S01-S08 480p nSD WEB-DL_rvarun7777\n\nFormat                                   : Matroska\nFormat version                           : Version 2\nFile size                                : 41.7GB\nDuration                                 : 17mn 52s[Each Episode]\nOverall bit rate                         : 2000-2400 Kbps\nEncoded date                             : UTC 2011-08-06 20:08:22\nWriting application                      : mkvmerge v4.8.0 ('I Got The...') built on Dec 24 2013 03:12:58\nWriting library                          : libebml v1.2.0 + libmatroska v1.1.0\n \nVideo\nID                                       : 1\nFormat                                   : AVC\nFormat/Info                              : Advanced Video Codec\nFormat profile                           : &lt;a class=&quot;__cf_email__&quot; href=&quot;/cdn-cgi/l/email-protection&quot; data-cfemail=&quot;054d6c626d4549312b34&quot;&gt;[email&amp;#160;protected]&lt;/a&gt;&lt;script cf-hash='f9e31' type=&quot;text/javascript&quot;&gt;\n/* &lt;![CDATA[ */!function(){try{var t=&quot;currentScript&quot;in document?document.currentScript:function(){for(var t=document.getElementsByTagName(&quot;script&quot;),e=t.length;e--;)if(t[e].getAttribute(&quot;cf-hash&quot;))return t[e]}();if(t&amp;&amp;t.previousSibling){var e,r,n,i,c=t.previousSibling,a=c.getAttribute(&quot;data-cfemail&quot;);if(a){for(e=&quot;&quot;,r=parseInt(a.substr(0,2),16),n=2;a.length-n;n+=2)i=parseInt(a.substr(n,2),16)^r,e+=String.fromCharCode(i);e=document.createTextNode(e),c.parentNode.replaceChild(e,c)}}}catch(u){}}();/* ]]&gt; */&lt;/script&gt;\nFormat settings, CABAC                   : Yes\nFormat settings, ReFrames                : 5 frames\nCodec ID                                 : V_MPEG4/ISO/AVC\nDuration                                 : 17mn 55s\nBit rate                                 : 2575 Kbps\nWidth                                    : 848 pixels\nHeight                                   : 480 pixels\nDisplay aspect ratio                     : 16:9\nFrame rate mode                          : Constant\nFrame rate                               : 23.976 fps\nColor space                              : YUV\nChroma subsampling                       : 4:2:0\nBit depth                                : 8 bits\nScan type                                : Progressive\nBits/(Pixel*Frame)                       : 0.117\nStream size                              : 200 MiB (85%)\nWriting library                          : x264 core 115 r2008 4c552d8\nEncoding settings                        : cabac=1 / ref=5 / deblock=1:0:0 / analyse=0x3:0x113 / me=umh / subme=9 / psy=1 / psy_rd=1.00:0.00 / mixed_ref=1 / me_range=16 / chroma_me=1 / trellis=1 / 8x8dct=1 / cqm=0 / deadzone=21,11 / fast_pskip=1 / chroma_qp_offset=-2 / threads=12 / sliced_threads=0 / nr=0 / decimate=1 / interlaced=0 / bluray_compat=0 / constrained_intra=0 / bframes=5 / b_pyramid=2 / b_adapt=1 / b_bias=0 / direct=1 / weightb=1 / open_gop=0 / weightp=2 / keyint=250 / keyint_min=23 / scenecut=40 / intra_refresh=0 / rc_lookahead=40 / rc=2pass / mbtree=1 / bitrate=2575 / ratetol=1.0 / qcomp=0.60 / qpmin=0 / qpmax=69 / qpstep=4 / cplxblur=20.0 / qblur=0.5 / vbv_maxrate=20000 / vbv_bufsize=15000 / nal_hrd=none / ip_ratio=1.40 / aq=1:1.00\nLanguage                                 : English\nDefault                                  : Yes\nForced                                   : No\nColor primaries                          : BT.709\nTransfer characteristics                 : BT.709\nMatrix coefficients                      : BT.709\n \nAudio\nID                                       : 2\nFormat                                   : AC-3\nFormat/Info                              : Audio Coding 3\nMode extension                           : CM (complete main)\nFormat settings, Endianness              : Big\nCodec ID                                 : A_AC3\nDuration                                 : 17mn 52s\nBit rate mode                            : Constant\nBit rate                                 : 128 Kbps\nChannel(s)                               : 2 channels\nChannel positions                        : Front: L C R, Side: L R, LFE\nSampling rate                            : 48.0 KHz\nBit depth                                : 16 bits\nCompression mode                         : Lossy\nStream size                              : 50 MiB (13%)\nLanguage                                 : English\nDefault                                  : Yes\nForced                                   : Yes","torrent":{"xt":"urn:btih:65087cac952eaaa5e7f701091de0a38f8028dfbb","amp;dn":"Two+And+A+Half+Men+S01-S08+480p+nSD+WEB-DL_rvarun7777","amp;tr":["udp%3A%2F%2Ftracker.openbittorrent.com%3A80","udp%3A%2F%2Fopen.demonii.com%3A1337","udp%3A%2F%2Ftracker.coppersurfer.tk%3A6969","udp%3A%2F%2Fexodus.desync.com%3A6969"],"infoHash":"65087cac952eaaa5e7f701091de0a38f8028dfbb","infoHashBuffer":{"type":"Buffer","data":[101,8,124,172,149,46,170,165,231,247,1,9,29,224,163,143,128,40,223,187]},"announce":[],"urlList":[]}}